<svg height="16" viewBox="0 0 16 16" width="16" xmlns="http://www.w3.org/2000/svg"><path d="m4.50210155 9.3741201c-.90792683-.63231469-1.50210155-1.68382892-1.50210155-2.8741201 0-1.93299662 1.56700338-3.5 3.5-3.5s3.5 1.56700338 3.5 3.5c0 1.19029118-.59417472 2.24180541-1.50210155 2.8741201 2.04978735.7995265 3.50210155 2.7931001 3.50210155 5.1258799 0 .1685448-.0075813.335319-.0224215.5h-1.0050429c.0181477-.1641669.0274644-.3309955.0274644-.5 0-2.4852814-2.01471863-4.5-4.5-4.5s-4.5 2.0147186-4.5 4.5c0 .1690045.00931666.3358331.02746439.5h-1.00504288c-.0148402-.164681-.02242151-.3314552-.02242151-.5 0-2.3327798 1.45231416-4.3263534 3.50210155-5.1258799zm1.99789845-.3741201c1.38071187 0 2.5-1.11928813 2.5-2.5s-1.11928813-2.5-2.5-2.5-2.5 1.11928813-2.5 2.5 1.11928813 2.5 2.5 2.5zm4.1848662-.84237851c.2033423-.51293024.3151105-1.07213331.3151338-1.65743839.6072233-.45610317 1-1.18227418 1-2.0001831 0-1.38071187-1.1192881-2.5-2.5-2.5-.46298477 0-.89657462.12585463-1.26842436.3452187-.38009908-.15859607-.78660552-.26655309-1.21109072-.31544242.63373868-.63610749 1.51065375-1.02977628 2.47951508-1.02977628 1.9329966 0 3.5 1.56700338 3.5 3.5 0 1.19029118-.5941747 2.24180541-1.5021015 2.8741201 2.0497873.79952654 3.5021015 2.7931001 3.5021015 5.1258799 0 .1685448-.0075813.335319-.0224215.5h-1.0050429c.0181477-.1641669.0274644-.3309955.0274644-.5 0-2.0752021-1.4047016-3.8223186-3.3151338-4.34237851z" fill="#293040"/></svg>