<svg fill="none" height="24" viewBox="0 0 24 24" width="24" xmlns="http://www.w3.org/2000/svg"><path d="m12 2c-5.52 0-10 4.48-10 10s4.48 10 10 10 10-4.48 10-10-4.48-10-10-10zm-3.27 5.66c.81 0 1.48.66 1.48 1.48 0 .81-.66 1.48-1.48 1.48-.81 0-1.48-.66-1.48-1.48s.66-1.48 1.48-1.48zm.12 8.14c-.15.15-.34.22-.53.22s-.38-.07-.53-.22c-.29-.29-.29-.77 0-1.06l6.55-6.55c.29-.29.77-.29 1.06 0s.29.77 0 1.06zm6.42.54c-.81 0-1.48-.66-1.48-1.48 0-.81.66-1.48 1.48-1.48.81 0 1.48.66 1.48 1.48s-.66 1.48-1.48 1.48z" fill="#292d32"/></svg>